<?xml version="1.0" encoding="utf-8"?>
<!-- Generator: Adobe Illustrator 26.0.1, SVG Export Plug-In . SVG Version: 6.00 Build 0)  -->
<svg version="1.1" id="Слой_1" xmlns="http://www.w3.org/2000/svg" xmlns:xlink="http://www.w3.org/1999/xlink" x="0px" y="0px" viewBox="0 0 90 93" style="enable-background: new 0 0 90 93" xml:space="preserve">
<style>.st0 {
  clip-path: url("#SVGID_00000058551671464390057930000014521791445172450965_");
}

.st1 {
  fill: #0d0;
}

.st2 {
  fill: #0c78e4;
}

.st3 {
  fill: #ffd028;
}

</style>
<g>
	<defs>
		<rect id="SVGID_1_" y="0" width="90" height="108"></rect>
	</defs>
	<clipPath id="SVGID_00000102510582883516469140000017655331928824578466_">
		<use xlink:href="#SVGID_1_" style="overflow: visible"></use>
	</clipPath>
	<g style="clip-path: url(&quot;#SVGID_00000102510582883516469140000017655331928824578466_&quot;)">
		<path class="st1" d="M44.5,33.7H30.9v13.7h13.7V33.7z"></path>
		<path class="st1" d="M59.6,33.7H45.9v13.7h13.7V33.7z"></path>
		<path class="st1" d="M74.7,33.7H61v13.7h13.7V33.7z"></path>
		<path class="st1" d="M29.6,33.7H15.9v13.7h13.7V33.7z"></path>
		<path class="st1" d="M44.5,48.9H30.9v13.7h13.7V48.9z"></path>
		<path class="st1" d="M59.6,48.9H45.9v13.7h13.7V48.9z"></path>
		<path class="st1" d="M14.4,48.9H0.7v13.7h13.7V48.9z"></path>
		<path class="st1" d="M89.7,48.9H76.1v13.7h13.7V48.9z"></path>
		<path class="st1" d="M29.6,64H15.9v13.7h13.7V64z"></path>
		<path class="st1" d="M14.4,64H0.7v13.7h13.7V64z"></path>
		<path class="st1" d="M74.7,64H61v13.7h13.7V64z"></path>
		<path class="st1" d="M89.7,64H76.1v13.7h13.7V64z"></path>
		<path class="st1" d="M29.6,79.1H15.9v13.7h13.7V79.1z"></path>
		<path class="st1" d="M14.4,79.1H0.7v13.7h13.7V79.1z"></path>
		<path class="st1" d="M74.7,79.1H61v13.7h13.7V79.1z"></path>
		<path class="st1" d="M89.7,79.1H76.1v13.7h13.7V79.1z"></path>
		<path class="st1" d="M59.6,25.5H30.9v6.9h28.7V25.5z"></path>
		<path class="st1" d="M48.8,0h-6.9v24.1h6.9V0z"></path>
		<path class="st2" d="M48.7,7h6.9V0h-6.9V7z"></path>
		<path class="st2" d="M55.6,7h6.9V0h-6.9V7z"></path>
		<path class="st2" d="M62.4,7h6.9V0h-6.9V7z"></path>
		<path class="st2" d="M69.2,13.8h6.9V6.9h-6.9V13.8z"></path>
		<path class="st2" d="M76.1,13.8H83V6.9h-6.9V13.8z"></path>
		<path class="st2" d="M82.9,13.8h6.9V6.9h-6.9V13.8z"></path>
		<path class="st3" d="M48.7,13.8h6.9v-3.5h-6.9V13.8z"></path>
		<path class="st3" d="M55.6,13.8h6.9v-3.5h-6.9V13.8z"></path>
		<path class="st3" d="M62.4,13.8h6.9v-3.5h-6.9V13.8z"></path>
		<path class="st3" d="M69.2,20.6h6.9v-3.5h-6.9V20.6z"></path>
		<path class="st3" d="M76.1,20.6H83v-3.5h-6.9V20.6z"></path>
		<path class="st3" d="M82.9,20.6h6.9v-3.5h-6.9V20.6z"></path>
		<path class="st3" d="M48.7,20.6h6.9v-6.9h-6.9V20.6z"></path>
		<path class="st3" d="M55.6,20.6h6.9v-6.9h-6.9V20.6z"></path>
		<path class="st3" d="M62.4,20.6h6.9v-6.9h-6.9V20.6z"></path>
		<path class="st3" d="M69.2,27.6h6.9v-6.9h-6.9V27.6z"></path>
		<path class="st3" d="M76.1,27.6H83v-6.9h-6.9V27.6z"></path>
		<path class="st3" d="M82.9,27.6h6.9v-6.9h-6.9V27.6z"></path>
		<path class="st2" d="M48.7,10.4h6.9V6.9h-6.9V10.4z"></path>
		<path class="st2" d="M55.6,10.4h6.9V6.9h-6.9V10.4z"></path>
		<path class="st2" d="M62.4,10.4h6.9V6.9h-6.9V10.4z"></path>
		<path class="st2" d="M69.2,17.2h6.9v-3.5h-6.9V17.2z"></path>
		<path class="st2" d="M76.1,17.2H83v-3.5h-6.9V17.2z"></path>
		<path class="st2" d="M82.9,17.2h6.9v-3.5h-6.9V17.2z"></path>
	</g>
</g>
</svg>
